<mxfile host="app.diagrams.net" agent="Mozilla/5.0 (Windows NT 10.0; Win64; x64) AppleWebKit/537.36 (KHTML, like Gecko) Chrome/131.0.0.0 Safari/537.36" version="25.0.3">
  <diagram name="第 1 页" id="kpIQoOo-SqKmBoQv5uoG">
    <mxGraphModel dx="2288" dy="1787" grid="1" gridSize="10" guides="1" tooltips="1" connect="1" arrows="1" fold="1" page="1" pageScale="1" pageWidth="827" pageHeight="1169" math="0" shadow="0">
      <root>
        <mxCell id="0" />
        <mxCell id="1" parent="0" />
        <mxCell id="rpXHInRyXJkPKSwSxWvP-1" value="计算" style="rounded=0;whiteSpace=wrap;html=1;" vertex="1" parent="1">
          <mxGeometry x="220" y="240" width="120" height="60" as="geometry" />
        </mxCell>
        <mxCell id="rpXHInRyXJkPKSwSxWvP-2" value="网络" style="rounded=0;whiteSpace=wrap;html=1;" vertex="1" parent="1">
          <mxGeometry x="-10" y="300" width="120" height="60" as="geometry" />
        </mxCell>
        <mxCell id="rpXHInRyXJkPKSwSxWvP-3" value="存储" style="rounded=0;whiteSpace=wrap;html=1;" vertex="1" parent="1">
          <mxGeometry x="-160" y="420" width="120" height="60" as="geometry" />
        </mxCell>
        <mxCell id="rpXHInRyXJkPKSwSxWvP-4" value="CI/CD" style="rounded=0;whiteSpace=wrap;html=1;" vertex="1" parent="1">
          <mxGeometry x="220" y="140" width="120" height="60" as="geometry" />
        </mxCell>
        <mxCell id="rpXHInRyXJkPKSwSxWvP-5" value="监控" style="rounded=0;whiteSpace=wrap;html=1;" vertex="1" parent="1">
          <mxGeometry x="220" y="40" width="120" height="60" as="geometry" />
        </mxCell>
        <mxCell id="rpXHInRyXJkPKSwSxWvP-6" value="Jira/禅道" style="rounded=1;whiteSpace=wrap;html=1;" vertex="1" parent="1">
          <mxGeometry x="440" y="540" width="120" height="60" as="geometry" />
        </mxCell>
        <mxCell id="rpXHInRyXJkPKSwSxWvP-27" style="edgeStyle=orthogonalEdgeStyle;rounded=0;orthogonalLoop=1;jettySize=auto;html=1;" edge="1" parent="1" source="rpXHInRyXJkPKSwSxWvP-7" target="rpXHInRyXJkPKSwSxWvP-6">
          <mxGeometry relative="1" as="geometry" />
        </mxCell>
        <mxCell id="rpXHInRyXJkPKSwSxWvP-30" style="edgeStyle=orthogonalEdgeStyle;rounded=0;orthogonalLoop=1;jettySize=auto;html=1;entryX=0;entryY=0.5;entryDx=0;entryDy=0;" edge="1" parent="1" source="rpXHInRyXJkPKSwSxWvP-7" target="rpXHInRyXJkPKSwSxWvP-28">
          <mxGeometry relative="1" as="geometry" />
        </mxCell>
        <mxCell id="rpXHInRyXJkPKSwSxWvP-7" value="项目/管理" style="rounded=0;whiteSpace=wrap;html=1;" vertex="1" parent="1">
          <mxGeometry x="130" y="570" width="120" height="60" as="geometry" />
        </mxCell>
        <mxCell id="rpXHInRyXJkPKSwSxWvP-8" value="制品管理" style="rounded=0;whiteSpace=wrap;html=1;" vertex="1" parent="1">
          <mxGeometry x="-170" y="730" width="120" height="60" as="geometry" />
        </mxCell>
        <mxCell id="rpXHInRyXJkPKSwSxWvP-9" value="日志" style="rounded=0;whiteSpace=wrap;html=1;" vertex="1" parent="1">
          <mxGeometry x="220" y="-60" width="120" height="60" as="geometry" />
        </mxCell>
        <mxCell id="rpXHInRyXJkPKSwSxWvP-10" value="中间件" style="rounded=0;whiteSpace=wrap;html=1;" vertex="1" parent="1">
          <mxGeometry x="490" y="-60" width="120" height="60" as="geometry" />
        </mxCell>
        <mxCell id="rpXHInRyXJkPKSwSxWvP-11" value="用户" style="shape=umlActor;verticalLabelPosition=bottom;verticalAlign=top;html=1;outlineConnect=0;" vertex="1" parent="1">
          <mxGeometry x="-140" y="-100" width="30" height="60" as="geometry" />
        </mxCell>
        <mxCell id="rpXHInRyXJkPKSwSxWvP-14" value="运维（桌面&lt;span style=&quot;background-color: initial;&quot;&gt;）&lt;/span&gt;" style="shape=umlActor;verticalLabelPosition=bottom;verticalAlign=top;html=1;outlineConnect=0;" vertex="1" parent="1">
          <mxGeometry x="-40" y="20" width="30" height="60" as="geometry" />
        </mxCell>
        <mxCell id="rpXHInRyXJkPKSwSxWvP-15" value="运维（SRE）" style="shape=umlActor;verticalLabelPosition=bottom;verticalAlign=top;html=1;outlineConnect=0;" vertex="1" parent="1">
          <mxGeometry x="-140" y="10" width="30" height="60" as="geometry" />
        </mxCell>
        <mxCell id="rpXHInRyXJkPKSwSxWvP-16" value="产品经理" style="shape=umlActor;verticalLabelPosition=bottom;verticalAlign=top;html=1;outlineConnect=0;" vertex="1" parent="1">
          <mxGeometry x="-170" y="170" width="30" height="60" as="geometry" />
        </mxCell>
        <mxCell id="rpXHInRyXJkPKSwSxWvP-17" value="产品经理" style="shape=umlActor;verticalLabelPosition=bottom;verticalAlign=top;html=1;outlineConnect=0;" vertex="1" parent="1">
          <mxGeometry x="-230" y="90" width="30" height="60" as="geometry" />
        </mxCell>
        <mxCell id="rpXHInRyXJkPKSwSxWvP-18" value="运维（数据中心&lt;span style=&quot;background-color: initial;&quot;&gt;）&lt;/span&gt;" style="shape=umlActor;verticalLabelPosition=bottom;verticalAlign=top;html=1;outlineConnect=0;" vertex="1" parent="1">
          <mxGeometry x="-80" y="150" width="30" height="60" as="geometry" />
        </mxCell>
        <mxCell id="rpXHInRyXJkPKSwSxWvP-21" value="数据库" style="rounded=0;whiteSpace=wrap;html=1;" vertex="1" parent="1">
          <mxGeometry x="490" y="70" width="120" height="60" as="geometry" />
        </mxCell>
        <mxCell id="rpXHInRyXJkPKSwSxWvP-22" value="IT系统" style="rounded=0;whiteSpace=wrap;html=1;" vertex="1" parent="1">
          <mxGeometry x="490" y="210" width="120" height="60" as="geometry" />
        </mxCell>
        <mxCell id="rpXHInRyXJkPKSwSxWvP-28" value="文档:语雀、飞书、石墨、confluence.." style="rounded=1;whiteSpace=wrap;html=1;" vertex="1" parent="1">
          <mxGeometry x="440" y="630" width="120" height="60" as="geometry" />
        </mxCell>
        <mxCell id="rpXHInRyXJkPKSwSxWvP-32" style="edgeStyle=orthogonalEdgeStyle;rounded=0;orthogonalLoop=1;jettySize=auto;html=1;entryX=0;entryY=0.5;entryDx=0;entryDy=0;" edge="1" parent="1" source="rpXHInRyXJkPKSwSxWvP-29" target="rpXHInRyXJkPKSwSxWvP-34">
          <mxGeometry relative="1" as="geometry">
            <mxPoint x="430" y="450" as="targetPoint" />
          </mxGeometry>
        </mxCell>
        <mxCell id="rpXHInRyXJkPKSwSxWvP-29" value="语言" style="rounded=0;whiteSpace=wrap;html=1;" vertex="1" parent="1">
          <mxGeometry x="200" y="420" width="120" height="60" as="geometry" />
        </mxCell>
        <mxCell id="rpXHInRyXJkPKSwSxWvP-33" value="" style="rounded=1;whiteSpace=wrap;html=1;" vertex="1" parent="1">
          <mxGeometry x="680" y="730" width="120" height="60" as="geometry" />
        </mxCell>
        <mxCell id="rpXHInRyXJkPKSwSxWvP-34" value="IDE:JetBrain、vscode..." style="rounded=1;whiteSpace=wrap;html=1;" vertex="1" parent="1">
          <mxGeometry x="610" y="390" width="120" height="60" as="geometry" />
        </mxCell>
        <mxCell id="rpXHInRyXJkPKSwSxWvP-37" style="edgeStyle=orthogonalEdgeStyle;rounded=0;orthogonalLoop=1;jettySize=auto;html=1;entryX=0;entryY=0.5;entryDx=0;entryDy=0;" edge="1" parent="1" source="rpXHInRyXJkPKSwSxWvP-35" target="rpXHInRyXJkPKSwSxWvP-36">
          <mxGeometry relative="1" as="geometry" />
        </mxCell>
        <mxCell id="rpXHInRyXJkPKSwSxWvP-35" value="配置管理" style="rounded=0;whiteSpace=wrap;html=1;" vertex="1" parent="1">
          <mxGeometry x="840" y="560" width="120" height="60" as="geometry" />
        </mxCell>
        <mxCell id="rpXHInRyXJkPKSwSxWvP-36" value="Nacos、Apollo、etcd、Consul、Disconf、Spring Cloud config" style="rounded=1;whiteSpace=wrap;html=1;" vertex="1" parent="1">
          <mxGeometry x="1181" y="480" width="120" height="60" as="geometry" />
        </mxCell>
      </root>
    </mxGraphModel>
  </diagram>
</mxfile>
